<svg width="29" height="28" viewBox="0 0 29 28" fill="none" xmlns="http://www.w3.org/2000/svg">
<path d="M14.667 26.25C11.4181 26.25 8.30225 24.9594 6.00493 22.6621C3.70761 20.3647 2.41699 17.2489 2.41699 14C2.41699 10.7511 3.70761 7.63526 6.00493 5.33794C8.30225 3.04062 11.4181 1.75 14.667 1.75C17.9159 1.75 21.0317 3.04062 23.3291 5.33794C25.6264 7.63526 26.917 10.7511 26.917 14C26.917 17.2489 25.6264 20.3647 23.3291 22.6621C21.0317 24.9594 17.9159 26.25 14.667 26.25ZM14.667 28C18.38 28 21.941 26.525 24.5665 23.8995C27.192 21.274 28.667 17.713 28.667 14C28.667 10.287 27.192 6.72601 24.5665 4.10051C21.941 1.475 18.38 0 14.667 0C10.954 0 7.39301 1.475 4.7675 4.10051C2.14199 6.72601 0.666992 10.287 0.666992 14C0.666992 17.713 2.14199 21.274 4.7675 23.8995C7.39301 26.525 10.954 28 14.667 28Z" fill="#0DCAF0"/>
<path d="M19.917 14C19.917 15.3924 19.3639 16.7277 18.3793 17.7123C17.3947 18.6969 16.0594 19.25 14.667 19.25C13.2746 19.25 11.9392 18.6969 10.9547 17.7123C9.97012 16.7277 9.41699 15.3924 9.41699 14C9.41699 12.6076 9.97012 11.2723 10.9547 10.2877C11.9392 9.30312 13.2746 8.75 14.667 8.75C16.0594 8.75 17.3947 9.30312 18.3793 10.2877C19.3639 11.2723 19.917 12.6076 19.917 14Z" fill="#0DCAF0"/>
</svg>
