<svg width="16" height="16" viewBox="0 0 16 16" fill="none" xmlns="http://www.w3.org/2000/svg">
<path d="M8 0.5C3.86 0.5 0.5 3.86 0.5 8C0.5 12.14 3.86 15.5 8 15.5C12.14 15.5 15.5 12.14 15.5 8C15.5 3.86 12.14 0.5 8 0.5ZM5.9675 11.2175L3.275 8.525C2.9825 8.2325 2.9825 7.76 3.275 7.4675C3.5675 7.175 4.04 7.175 4.3325 7.4675L6.5 9.6275L11.66 4.4675C11.9525 4.175 12.425 4.175 12.7175 4.4675C13.01 4.76 13.01 5.2325 12.7175 5.525L7.025 11.2175C6.74 11.51 6.26 11.51 5.9675 11.2175Z" fill="#198754"/>
</svg>
