<svg width="13" height="17" viewBox="0 0 13 17" fill="none" xmlns="http://www.w3.org/2000/svg">
<path d="M6.864 16.174C5.908 16.414 5.021 15.69 4.956 14.754C4.884 13.704 4.726 12.739 4.528 12.164C4.403 11.804 4.049 11.152 3.488 10.526C2.931 9.902 2.206 9.347 1.357 9.116C0.685 8.932 0 8.35 0 7.5V3.5C0 2.655 0.682 2.036 1.448 1.954C2.518 1.841 3.012 1.539 3.516 1.231L3.564 1.202C3.836 1.036 4.142 0.853 4.534 0.718C4.931 0.58 5.395 0.5 6 0.5H9.5C10.437 0.5 11.099 0.978 11.434 1.564C11.598 1.851 11.688 2.171 11.688 2.477C11.688 2.629 11.665 2.789 11.611 2.941C11.812 3.203 11.991 3.518 12.099 3.841C12.209 4.171 12.271 4.603 12.103 4.991C12.172 5.121 12.223 5.259 12.262 5.394C12.339 5.664 12.375 5.961 12.375 6.25C12.375 6.539 12.339 6.836 12.262 7.106C12.227 7.226 12.182 7.35 12.124 7.469C12.518 8.04 12.542 8.669 12.358 9.202C12.152 9.794 11.676 10.302 11.158 10.474C10.311 10.757 9.355 10.75 8.642 10.685C8.49398 10.6717 8.34627 10.655 8.199 10.635C8.54611 12.1209 8.52483 13.6692 8.137 15.145C7.999 15.653 7.587 15.993 7.125 16.109L6.864 16.174ZM9.5 1.5H6C5.49 1.5 5.137 1.568 4.86 1.663C4.579 1.76 4.354 1.892 4.084 2.056L4.044 2.081C3.489 2.419 2.846 2.811 1.554 2.949C1.221 2.984 1 3.239 1 3.499V7.5C1 7.755 1.226 8.043 1.62 8.15C2.715 8.45 3.597 9.147 4.234 9.859C4.869 10.569 5.298 11.334 5.472 11.836C5.715 12.536 5.879 13.604 5.954 14.686C5.979 15.048 6.314 15.281 6.621 15.204L6.883 15.139C7.043 15.099 7.141 14.995 7.171 14.884C7.57958 13.3277 7.52923 11.6864 7.026 10.158C6.99776 10.0731 6.99284 9.98212 7.01175 9.89464C7.03065 9.80716 7.07269 9.72635 7.13348 9.66066C7.19426 9.59497 7.27157 9.5468 7.35732 9.52118C7.44308 9.49556 7.53414 9.49342 7.621 9.515H7.624L7.638 9.519L7.696 9.532C8.03796 9.60461 8.38389 9.65703 8.732 9.689C9.395 9.749 10.189 9.743 10.842 9.526C11.017 9.467 11.292 9.225 11.412 8.875C11.519 8.567 11.499 8.205 11.146 7.854L10.793 7.5L11.146 7.146C11.189 7.104 11.251 7.006 11.3 6.831C11.348 6.664 11.375 6.461 11.375 6.25C11.375 6.039 11.348 5.836 11.3 5.669C11.25 5.495 11.189 5.396 11.146 5.354L10.793 5L11.146 4.646C11.193 4.599 11.255 4.47 11.151 4.158C11.0425 3.85677 10.8702 3.58253 10.646 3.354L10.293 3L10.646 2.646C10.652 2.641 10.687 2.596 10.687 2.476C10.6824 2.32966 10.6408 2.18688 10.566 2.061C10.4 1.772 10.063 1.5 9.5 1.5Z" fill="#6C757D"/>
</svg>
