<svg width="13" height="17" viewBox="0 0 13 17" fill="none" xmlns="http://www.w3.org/2000/svg">
<path d="M6.864 0.546084C5.908 0.307084 5.02 1.03008 4.956 1.96608C4.884 3.01708 4.726 3.98208 4.528 4.55608C4.403 4.91608 4.049 5.56908 3.488 6.19508C2.931 6.81808 2.206 7.37308 1.357 7.60508C0.685 7.78808 0 8.37008 0 9.22008V13.2211C0 14.0661 0.682 14.6851 1.448 14.7661C2.518 14.8801 3.012 15.1811 3.516 15.4891L3.564 15.5191C3.836 15.6841 4.142 15.8671 4.534 16.0031C4.931 16.1391 5.395 16.2201 6 16.2201H9.5C10.437 16.2201 11.099 15.7431 11.434 15.1561C11.5959 14.8791 11.6834 14.5649 11.688 14.2441C11.688 14.0921 11.665 13.9321 11.611 13.7801C11.812 13.5171 11.991 13.2021 12.099 12.8791C12.209 12.5491 12.271 12.1171 12.103 11.7301C12.172 11.6001 12.223 11.4611 12.262 11.3271C12.339 11.0571 12.375 10.7591 12.375 10.4701C12.375 10.1821 12.339 9.88508 12.262 9.61408C12.227 9.4895 12.1808 9.36834 12.124 9.25208C12.2991 9.00296 12.4118 8.71539 12.4525 8.41362C12.4932 8.11185 12.4608 7.80471 12.358 7.51808C12.152 6.92608 11.676 6.41808 11.158 6.24608C10.311 5.96408 9.355 5.97008 8.642 6.03508C8.49397 6.0484 8.34627 6.06507 8.199 6.08508C8.54591 4.59947 8.52462 3.0516 8.137 1.57608C8.06956 1.33967 7.9402 1.12557 7.76228 0.955914C7.58436 0.786258 7.36435 0.667211 7.125 0.611084L6.864 0.546084ZM9.5 15.2211H6C5.49 15.2211 5.137 15.1521 4.86 15.0571C4.579 14.9601 4.354 14.8291 4.084 14.6641L4.044 14.6401C3.489 14.3011 2.846 13.9091 1.554 13.7721C1.221 13.7361 1 13.4821 1 13.2221V9.22008C1 8.96608 1.226 8.67708 1.62 8.57008C2.715 8.27008 3.597 7.57408 4.234 6.86208C4.869 6.15208 5.298 5.38708 5.472 4.88408C5.715 4.18408 5.879 3.11608 5.954 2.03408C5.979 1.67208 6.314 1.44008 6.621 1.51608L6.883 1.58208C7.043 1.62208 7.141 1.72508 7.171 1.83708C7.57939 3.39311 7.52903 5.03403 7.026 6.56208C6.99753 6.64707 6.99242 6.73815 7.01122 6.82579C7.03002 6.91342 7.07203 6.99439 7.13285 7.06023C7.19368 7.12606 7.27108 7.17433 7.35695 7.19999C7.44283 7.22565 7.53403 7.22776 7.621 7.20608L7.624 7.20508L7.638 7.20208L7.696 7.18808C8.03795 7.11547 8.38389 7.06304 8.732 7.03108C9.395 6.97108 10.189 6.97708 10.842 7.19508C11.017 7.25308 11.292 7.49508 11.412 7.84508C11.519 8.15308 11.499 8.51508 11.146 8.86708L10.793 9.22008L11.146 9.57408C11.189 9.61708 11.251 9.71508 11.3 9.88908C11.348 10.0561 11.375 10.2591 11.375 10.4701C11.375 10.6821 11.348 10.8841 11.3 11.0521C11.25 11.2261 11.189 11.3241 11.146 11.3671L10.793 11.7201L11.146 12.0741C11.193 12.1211 11.255 12.2511 11.151 12.5621C11.0426 12.8637 10.8704 13.1383 10.646 13.3671L10.293 13.7201L10.646 14.0741C10.652 14.0791 10.687 14.1241 10.687 14.2441C10.6826 14.3908 10.6409 14.5339 10.566 14.6601C10.401 14.9481 10.063 15.2201 9.5 15.2201V15.2211Z" fill="#6C757D"/>
</svg>
