<svg width="18" height="14" viewBox="0 0 18 14" fill="none" xmlns="http://www.w3.org/2000/svg">
<path d="M15.75 0.257812H2.25C1.425 0.257812 0.75 0.932813 0.75 1.75781V4.75031H2.25V1.74281H15.75V12.2653H2.25V9.25031H0.75V12.2578C0.75 13.0828 1.425 13.7428 2.25 13.7428H15.75C16.575 13.7428 17.25 13.0828 17.25 12.2578V1.75781C17.25 0.925313 16.575 0.257812 15.75 0.257812V0.257812ZM8.25 10.0003L11.25 7.00031L8.25 4.00031V6.25031H0.75V7.75031H8.25V10.0003ZM15.75 0.257812H2.25C1.425 0.257812 0.75 0.932813 0.75 1.75781V4.75031H2.25V1.74281H15.75V12.2653H2.25V9.25031H0.75V12.2578C0.75 13.0828 1.425 13.7428 2.25 13.7428H15.75C16.575 13.7428 17.25 13.0828 17.25 12.2578V1.75781C17.25 0.925313 16.575 0.257812 15.75 0.257812V0.257812ZM8.25 10.0003L11.25 7.00031L8.25 4.00031V6.25031H0.75V7.75031H8.25V10.0003Z" fill="black" fill-opacity="0.54"/>
</svg>
