<svg width="48" height="48" viewBox="0 0 48 48" fill="none" xmlns="http://www.w3.org/2000/svg">
<circle cx="24" cy="24" r="22.75" fill="#F8F9FA" stroke="#0198E0" stroke-width="2.5"/>
<path fill-rule="evenodd" clip-rule="evenodd" d="M38 16V35C38 36.0609 37.5786 37.0783 36.8284 37.8284C36.0783 38.5786 35.0609 39 34 39H32V37H34C34.5304 37 35.0391 36.7893 35.4142 36.4142C35.7893 36.0391 36 35.5304 36 35V16H32C31.2044 16 30.4413 15.6839 29.8787 15.1213C29.3161 14.5587 29 13.7956 29 13V9H18C17.4696 9 16.9609 9.21071 16.5858 9.58579C16.2107 9.96086 16 10.4696 16 11V29H14V11C14 9.93913 14.4214 8.92172 15.1716 8.17157C15.9217 7.42143 16.9391 7 18 7H29L38 16ZM13.2 30.7H10V38.698H11.582V36.014H13.188C13.762 36.014 14.25 35.9 14.652 35.668C15.058 35.434 15.368 35.118 15.578 34.72C15.796 34.3024 15.9066 33.8371 15.9 33.366C15.9 32.866 15.794 32.414 15.584 32.012C15.3751 31.6124 15.0558 31.2812 14.664 31.058C14.264 30.818 13.778 30.7 13.2 30.7ZM14.29 33.366C14.2972 33.6295 14.2388 33.8907 14.12 34.126C14.0134 34.3309 13.8475 34.4989 13.644 34.608C13.4112 34.7232 13.1537 34.7795 12.894 34.772H11.576V31.96H12.896C13.332 31.96 13.674 32.08 13.92 32.322C14.166 32.566 14.29 32.914 14.29 33.366ZM16.724 30.7V38.698H19.644C20.446 38.698 21.112 38.538 21.64 38.224C22.1743 37.9043 22.5915 37.4212 22.83 36.846C23.09 36.246 23.222 35.522 23.222 34.678C23.222 33.838 23.092 33.122 22.83 32.528C22.5944 31.9594 22.1811 31.4824 21.652 31.168C21.124 30.856 20.454 30.7 19.642 30.7H16.724ZM18.306 31.99H19.432C19.928 31.99 20.332 32.09 20.65 32.294C20.9801 32.5099 21.2291 32.8293 21.358 33.202C21.516 33.604 21.594 34.106 21.594 34.708C21.6002 35.1069 21.5545 35.5049 21.458 35.892C21.3867 36.1973 21.2533 36.4846 21.066 36.736C20.892 36.9603 20.6614 37.1342 20.398 37.24C20.0893 37.3555 19.7615 37.4111 19.432 37.404H18.306V31.99ZM25.792 35.516V38.698H24.212V30.7H29.308V32.006H25.792V34.24H29.004V35.516H25.792Z" fill="#0198E0"/>
</svg>
