<svg width="48" height="48" viewBox="0 0 48 48" fill="none" xmlns="http://www.w3.org/2000/svg">
<rect width="48" height="48" rx="24" fill="#E9ECEF"/>
<path d="M24 45C18.4305 45 13.089 42.7875 9.15076 38.8492C5.21249 34.911 3 29.5695 3 24C3 18.4305 5.21249 13.089 9.15076 9.15076C13.089 5.21249 18.4305 3 24 3C29.5695 3 34.911 5.21249 38.8492 9.15076C42.7875 13.089 45 18.4305 45 24C45 29.5695 42.7875 34.911 38.8492 38.8492C34.911 42.7875 29.5695 45 24 45ZM24 48C30.3652 48 36.4697 45.4714 40.9706 40.9706C45.4714 36.4697 48 30.3652 48 24C48 17.6348 45.4714 11.5303 40.9706 7.02944C36.4697 2.52856 30.3652 0 24 0C17.6348 0 11.5303 2.52856 7.02944 7.02944C2.52856 11.5303 0 17.6348 0 24C0 30.3652 2.52856 36.4697 7.02944 40.9706C11.5303 45.4714 17.6348 48 24 48Z" fill="#0198E0"/>
<path d="M18.813 15.165C19.0584 15.0387 19.3338 14.9825 19.609 15.0026C19.8843 15.0227 20.1486 15.1183 20.373 15.279L30.873 22.779C31.0674 22.9178 31.2259 23.1009 31.3353 23.3133C31.4447 23.5257 31.5017 23.7611 31.5017 24C31.5017 24.2389 31.4447 24.4743 31.3353 24.6867C31.2259 24.8991 31.0674 25.0822 30.873 25.221L20.373 32.721C20.1487 32.8815 19.8845 32.9771 19.6094 32.9972C19.3343 33.0173 19.059 32.9612 18.8137 32.835C18.5684 32.7088 18.3627 32.5174 18.2192 32.2819C18.0756 32.0464 17.9998 31.7758 18 31.5V16.5C17.9997 16.2242 18.0754 15.9538 18.2189 15.7182C18.3623 15.4827 18.5679 15.2913 18.813 15.165Z" fill="#0198E0"/>
</svg>
