<svg width="30" height="40" viewBox="0 0 30 40" fill="none" xmlns="http://www.w3.org/2000/svg">
<path d="M3.34672e-07 5V38.75C-0.000158485 38.9671 0.0562113 39.1804 0.163561 39.3691C0.270912 39.5578 0.425541 39.7152 0.612229 39.826C0.798917 39.9367 1.01123 39.9969 1.22826 40.0007C1.4453 40.0045 1.65957 39.9517 1.85 39.8475L15 32.6725L28.15 39.8475C28.3404 39.9517 28.5547 40.0045 28.7717 40.0007C28.9888 39.9969 29.2011 39.9367 29.3878 39.826C29.5745 39.7152 29.7291 39.5578 29.8364 39.3691C29.9438 39.1804 30.0002 38.9671 30 38.75V5C30 3.67392 29.4732 2.40215 28.5355 1.46447C27.5979 0.526784 26.3261 0 25 0L5 0C3.67392 0 2.40215 0.526784 1.46447 1.46447C0.526784 2.40215 3.34672e-07 3.67392 3.34672e-07 5Z" fill="#0198E0"/>
</svg>
