<svg width="28" height="28" viewBox="0 0 28 28" fill="none" xmlns="http://www.w3.org/2000/svg">
<path d="M28 14C28 17.713 26.525 21.274 23.8995 23.8995C21.274 26.525 17.713 28 14 28C10.287 28 6.72601 26.525 4.10051 23.8995C1.475 21.274 0 17.713 0 14C0 10.287 1.475 6.72601 4.10051 4.10051C6.72601 1.475 10.287 0 14 0C17.713 0 21.274 1.475 23.8995 4.10051C26.525 6.72601 28 10.287 28 14V14ZM21.0525 8.6975C20.9275 8.57293 20.7787 8.47485 20.6149 8.40913C20.4511 8.3434 20.2758 8.31138 20.0993 8.31497C19.9229 8.31856 19.749 8.3577 19.588 8.43004C19.427 8.50239 19.2823 8.60645 19.1625 8.736L13.0848 16.4797L9.422 12.8152C9.17319 12.5834 8.84411 12.4572 8.50409 12.4632C8.16406 12.4692 7.83963 12.6069 7.59916 12.8474C7.35869 13.0879 7.22094 13.4123 7.21494 13.7523C7.20894 14.0924 7.33516 14.4214 7.567 14.6703L12.1975 19.3025C12.3222 19.427 12.4708 19.5251 12.6343 19.591C12.7978 19.6569 12.9728 19.6891 13.1491 19.6859C13.3253 19.6826 13.499 19.6439 13.66 19.572C13.8209 19.5001 13.9657 19.3966 14.0857 19.2675L21.0718 10.535C21.3099 10.2874 21.4415 9.95623 21.4382 9.61268C21.4349 9.26912 21.2971 8.94055 21.0543 8.6975H21.0525Z" fill="#0DCAF0"/>
</svg>
